<svg version="1.1" xmlns="http://www.w3.org/2000/svg" viewBox="0 0 10020 646.515625" width="10020" height="646.515625">
  <!-- svg-source:excalidraw -->
  
  <defs>
    <style>
      @font-face {
        font-family: "Virgil";
        src: url("https://excalidraw.com/Virgil.woff2");
      }
      @font-face {
        font-family: "Cascadia";
        src: url("https://excalidraw.com/Cascadia.woff2");
      }
    </style>
  </defs>
  <rect x="0" y="0" width="10020" height="646.515625" fill="#fff0"></rect><g stroke-linecap="round" transform="translate(10 10) rotate(0 5000 0.5)"><path d="M-0.52 -0.26 C3022.65 -30.2, 6044.59 -29.2, 9999.32 0.22 M0.38 -0.31 C3948.03 -0.44, 7895.41 0.2, 9999.95 0.08 M10000.08 -0.06 C10000.09 0.27, 10000.05 0.48, 10000.09 0.92 M9999.97 0.01 C9999.95 0.33, 9999.98 0.72, 10000 0.99 M10000.22 1.51 C7095.77 35.76, 4193.15 34.95, -0.25 0.75 M10000.01 1.13 C7827.97 2.74, 5656.23 3.35, -0.33 0.84 M-0.04 1.01 C0 0.63, -0.06 0.15, 0.05 -0.03 M-0.04 0.95 C-0.04 0.73, -0.03 0.59, -0.05 -0.02" stroke="transparent" stroke-width="1" fill="none"></path></g><g transform="translate(742 634.515625) rotate(0 84.5 1)" stroke="none"><path fill="#000000" d="M 0,-1.61 Q 0,-1.61 1.72,-1.66 3.44,-1.70 5.33,-1.70 7.21,-1.71 10.02,-1.65 12.84,-1.60 16.62,-1.56 20.40,-1.52 24.89,-1.49 29.37,-1.46 34.72,-1.44 40.08,-1.42 45.84,-1.12 51.60,-0.81 57.46,-0.68 63.33,-0.55 68.73,-0.20 74.13,0.14 78.70,0.29 83.26,0.44 86.64,0.50 90.01,0.57 92.88,0.60 95.75,0.63 98.41,0.64 101.07,0.65 103.92,0.66 106.78,0.67 109.43,0.67 112.08,0.67 114.64,0.67 117.20,0.68 119.73,0.68 122.26,0.68 124.48,0.68 126.71,0.68 128.80,0.67 130.90,0.67 133.23,0.67 135.55,0.67 137.98,0.67 140.41,0.67 143.16,0.67 145.92,0.68 148.24,0.68 150.56,0.68 152.70,0.68 154.84,0.68 156.32,0.57 157.80,0.46 159.01,0.35 160.21,0.24 161.59,0.17 162.96,0.09 165.81,-0.02 168.66,-0.14 169.01,-0.08 169.35,-0.03 169.65,0.13 169.96,0.29 170.20,0.54 170.44,0.79 170.58,1.11 170.73,1.42 170.77,1.77 170.80,2.11 170.73,2.45 170.65,2.79 170.48,3.09 170.30,3.38 170.03,3.61 169.77,3.83 169.45,3.96 169.12,4.09 168.78,4.11 168.43,4.13 168.10,4.03 167.76,3.94 167.48,3.75 167.19,3.55 166.98,3.27 166.77,3.00 166.66,2.67 166.55,2.34 166.55,1.99 166.55,1.65 166.66,1.32 166.77,0.99 166.98,0.71 167.19,0.44 167.48,0.24 167.76,0.05 168.10,-0.03 168.43,-0.13 168.78,-0.11 169.12,-0.09 169.45,0.03 169.77,0.16 170.03,0.38 170.30,0.61 170.48,0.90 170.65,1.20 170.73,1.54 170.80,1.88 170.77,2.22 170.73,2.57 170.58,2.88 170.44,3.20 170.20,3.45 169.96,3.70 169.65,3.86 169.35,4.03 169.00,4.08 168.66,4.14 168.66,4.14 168.66,4.14 165.81,4.02 162.96,3.90 161.59,3.82 160.21,3.75 159.01,3.64 157.80,3.53 156.32,3.42 154.84,3.31 152.70,3.31 150.56,3.31 148.24,3.31 145.92,3.31 143.16,3.32 140.41,3.32 137.98,3.32 135.55,3.32 133.23,3.32 130.90,3.32 128.80,3.32 126.71,3.31 124.48,3.31 122.26,3.31 119.73,3.31 117.20,3.31 114.64,3.31 112.07,3.31 109.42,3.31 106.77,3.31 103.91,3.31 101.06,3.30 98.39,3.29 95.73,3.29 92.85,3.26 89.97,3.24 86.57,3.18 83.18,3.13 78.57,2.99 73.96,2.85 68.62,2.52 63.27,2.19 57.36,2.07 51.46,1.96 45.77,1.69 40.08,1.42 34.72,1.44 29.37,1.46 24.89,1.49 20.40,1.52 16.62,1.56 12.84,1.60 10.02,1.65 7.21,1.71 5.33,1.70 3.44,1.70 1.72,1.66 0,1.61 -0.19,1.59 -0.38,1.56 -0.56,1.50 -0.75,1.43 -0.91,1.32 -1.07,1.21 -1.20,1.06 -1.33,0.91 -1.42,0.74 -1.51,0.57 -1.55,0.38 -1.60,0.19 -1.60,-0.00 -1.60,-0.19 -1.55,-0.38 -1.51,-0.57 -1.42,-0.74 -1.33,-0.91 -1.20,-1.06 -1.07,-1.21 -0.91,-1.32 -0.75,-1.43 -0.56,-1.50 -0.38,-1.56 -0.19,-1.59 0.00,-1.61 0.00,-1.61 L 0,-1.61 Z"></path></g><g transform="translate(708 553.515625) rotate(0 0.5 15.5)" stroke="none"><path fill="#000000" d="M 2.01,0 Q 2.01,0 1.92,2.29 1.82,4.59 2.03,6.61 2.25,8.62 2.32,11.04 2.40,13.45 2.42,15.62 2.43,17.79 2.44,19.86 2.45,21.93 2.52,23.67 2.58,25.42 2.66,27.94 2.73,30.46 2.68,30.74 2.64,31.01 2.51,31.26 2.38,31.51 2.17,31.70 1.97,31.90 1.71,32.01 1.46,32.13 1.18,32.16 0.90,32.19 0.63,32.13 0.36,32.07 0.12,31.93 -0.12,31.79 -0.30,31.57 -0.48,31.36 -0.58,31.10 -0.69,30.84 -0.70,30.56 -0.72,30.28 -0.64,30.01 -0.57,29.74 -0.41,29.51 -0.26,29.27 -0.03,29.10 0.18,28.93 0.44,28.84 0.71,28.75 0.99,28.75 1.27,28.75 1.54,28.84 1.80,28.93 2.03,29.10 2.25,29.27 2.41,29.50 2.57,29.73 2.64,30.00 2.72,30.27 2.70,30.55 2.69,30.83 2.58,31.09 2.48,31.35 2.30,31.57 2.12,31.78 1.88,31.93 1.64,32.07 1.36,32.13 1.09,32.19 0.81,32.16 0.53,32.13 0.28,32.02 0.02,31.90 -0.17,31.71 -0.37,31.51 -0.51,31.27 -0.64,31.02 -0.68,30.74 -0.73,30.47 -0.73,30.47 -0.73,30.47 -0.67,27.95 -0.61,25.43 -0.56,23.70 -0.52,21.96 -0.55,19.91 -0.58,17.86 -0.67,15.74 -0.76,13.62 -0.93,11.35 -1.10,9.08 -1.46,6.84 -1.82,4.60 -1.92,2.30 -2.01,0 -1.98,-0.24 -1.95,-0.48 -1.87,-0.71 -1.78,-0.93 -1.64,-1.13 -1.51,-1.33 -1.32,-1.49 -1.14,-1.66 -0.93,-1.77 -0.71,-1.88 -0.47,-1.94 -0.24,-2.00 0.00,-2.00 0.24,-2.00 0.47,-1.94 0.71,-1.88 0.93,-1.77 1.14,-1.66 1.32,-1.49 1.51,-1.33 1.64,-1.13 1.78,-0.93 1.87,-0.71 1.95,-0.48 1.98,-0.24 2.01,0.00 2.01,0.00 L 2.01,0 Z"></path></g><g transform="translate(709 572.515625) rotate(0 9.5 -8)" stroke="none"><path fill="#000000" d="M -1.43,-1.43 Q -1.43,-1.43 0.05,-2.82 1.53,-4.21 3.41,-5.68 5.28,-7.15 7.23,-8.61 9.19,-10.07 10.90,-11.28 12.61,-12.48 13.81,-13.58 15.01,-14.67 16.13,-15.78 17.24,-16.89 17.49,-17.05 17.74,-17.21 18.03,-17.28 18.32,-17.35 18.62,-17.33 18.91,-17.31 19.18,-17.19 19.46,-17.07 19.68,-16.87 19.90,-16.68 20.05,-16.42 20.19,-16.16 20.25,-15.87 20.31,-15.58 20.27,-15.28 20.23,-14.99 20.09,-14.72 19.96,-14.46 19.75,-14.25 19.54,-14.04 19.28,-13.90 19.01,-13.77 18.72,-13.73 18.42,-13.69 18.13,-13.75 17.84,-13.80 17.58,-13.95 17.32,-14.09 17.13,-14.31 16.93,-14.53 16.81,-14.81 16.69,-15.08 16.67,-15.37 16.64,-15.67 16.71,-15.96 16.78,-16.25 16.94,-16.50 17.10,-16.75 17.34,-16.93 17.57,-17.12 17.84,-17.22 18.12,-17.33 18.42,-17.33 18.72,-17.34 19.00,-17.26 19.28,-17.17 19.53,-17.00 19.77,-16.82 19.94,-16.58 20.11,-16.34 20.20,-16.06 20.29,-15.77 20.28,-15.48 20.27,-15.18 20.17,-14.90 20.07,-14.62 19.88,-14.39 19.70,-14.16 19.70,-14.16 19.70,-14.16 18.44,-13.13 17.18,-12.10 15.82,-11.02 14.45,-9.94 12.82,-8.73 11.19,-7.52 9.35,-6.00 7.51,-4.49 5.86,-3.01 4.21,-1.53 2.82,-0.05 1.43,1.43 1.24,1.58 1.05,1.73 0.82,1.84 0.60,1.94 0.36,1.98 0.12,2.02 -0.12,2.01 -0.36,1.99 -0.60,1.92 -0.83,1.85 -1.04,1.72 -1.25,1.59 -1.42,1.42 -1.60,1.25 -1.72,1.04 -1.85,0.83 -1.92,0.60 -1.99,0.36 -2.01,0.12 -2.02,-0.12 -1.98,-0.36 -1.94,-0.60 -1.83,-0.82 -1.73,-1.05 -1.58,-1.24 -1.43,-1.43 -1.43,-1.43 L -1.43,-1.43 Z"></path></g><g transform="translate(711 570.515625) rotate(0 6.5 4)" stroke="none"><path fill="#000000" d="M 1.14,-2.00 Q 1.14,-2.00 3.09,-0.73 5.03,0.52 6.45,1.27 7.87,2.03 9.21,3.00 10.54,3.96 12.03,4.88 13.53,5.80 13.82,6.00 14.12,6.20 14.34,6.49 14.56,6.77 14.67,7.11 14.79,7.45 14.79,7.81 14.79,8.17 14.68,8.51 14.56,8.85 14.35,9.13 14.13,9.42 13.84,9.62 13.54,9.82 13.20,9.92 12.85,10.02 12.49,10.00 12.13,9.98 11.80,9.85 11.47,9.72 11.19,9.49 10.92,9.26 10.73,8.95 10.55,8.64 10.47,8.29 10.39,7.94 10.43,7.59 10.47,7.23 10.62,6.90 10.76,6.58 11.01,6.32 11.26,6.06 11.57,5.89 11.89,5.72 12.24,5.66 12.60,5.60 12.95,5.66 13.30,5.71 13.62,5.88 13.94,6.05 14.19,6.31 14.43,6.57 14.58,6.89 14.74,7.22 14.78,7.57 14.82,7.93 14.74,8.28 14.66,8.63 14.48,8.94 14.30,9.24 14.02,9.48 13.75,9.71 13.42,9.84 13.09,9.98 12.73,10.00 12.37,10.02 12.03,9.92 11.68,9.83 11.68,9.83 11.68,9.83 9.82,8.59 7.95,7.35 6.92,6.51 5.89,5.67 4.45,4.87 3.01,4.07 0.93,3.03 -1.14,2.00 -1.36,1.83 -1.58,1.67 -1.76,1.45 -1.94,1.24 -2.06,0.99 -2.18,0.73 -2.24,0.46 -2.29,0.19 -2.28,-0.08 -2.27,-0.35 -2.20,-0.62 -2.12,-0.89 -1.98,-1.13 -1.84,-1.37 -1.65,-1.57 -1.46,-1.77 -1.23,-1.92 -0.99,-2.07 -0.73,-2.16 -0.47,-2.25 -0.19,-2.28 0.08,-2.30 0.35,-2.26 0.63,-2.21 0.88,-2.10 1.14,-2.00 1.14,-2.00 L 1.14,-2.00 Z"></path></g><g transform="translate(734 578.515625) rotate(0 5 -1.5)" stroke="none"><path fill="#000000" d="M -2.00,-1.50 Q -2.00,-1.50 -1.14,-2.65 -0.27,-3.80 0.67,-5.09 1.61,-6.38 2.66,-7.62 3.71,-8.86 4.42,-9.70 5.14,-10.55 6.64,-11.15 8.15,-11.76 10.04,-10.08 11.92,-8.41 12.20,-7.15 12.48,-5.90 12.56,-4.46 12.64,-3.03 12.69,-1.88 12.73,-0.72 12.76,0.34 12.79,1.41 12.84,4.01 12.89,6.62 12.81,7.08 12.74,7.54 12.52,7.95 12.30,8.37 11.96,8.69 11.62,9.01 11.20,9.21 10.77,9.41 10.31,9.46 9.84,9.51 9.39,9.41 8.93,9.31 8.53,9.07 8.13,8.83 7.82,8.47 7.52,8.12 7.34,7.68 7.17,7.25 7.14,6.78 7.12,6.31 7.24,5.86 7.37,5.41 7.63,5.02 7.89,4.64 8.26,4.35 8.64,4.07 9.08,3.92 9.52,3.77 9.99,3.77 10.46,3.77 10.90,3.92 11.35,4.06 11.72,4.35 12.09,4.63 12.35,5.02 12.62,5.40 12.74,5.85 12.87,6.30 12.84,6.77 12.82,7.24 12.65,7.67 12.47,8.11 12.17,8.47 11.87,8.82 11.47,9.07 11.07,9.31 10.61,9.41 10.16,9.51 9.69,9.46 9.22,9.41 8.80,9.21 8.37,9.02 8.03,8.70 7.69,8.38 7.47,7.96 7.25,7.55 7.18,7.09 7.10,6.63 7.10,6.63 7.10,6.63 7.12,5.06 7.14,3.50 7.15,1.46 7.17,-0.57 7.15,-1.65 7.14,-2.72 7.26,-4.23 7.39,-5.74 6.49,-4.67 5.59,-3.61 4.66,-2.20 3.72,-0.79 2.86,0.35 2.00,1.50 1.79,1.72 1.58,1.94 1.33,2.10 1.07,2.26 0.79,2.36 0.50,2.45 0.20,2.48 -0.09,2.50 -0.39,2.45 -0.69,2.41 -0.97,2.29 -1.25,2.17 -1.49,1.99 -1.73,1.81 -1.92,1.57 -2.11,1.34 -2.24,1.06 -2.37,0.79 -2.44,0.50 -2.50,0.20 -2.48,-0.09 -2.47,-0.40 -2.39,-0.69 -2.30,-0.98 -2.15,-1.24 -2.00,-1.50 -2.00,-1.50 L -2.00,-1.50 Z"></path></g><g transform="translate(754 583.515625) rotate(0 -1.5 3.5)" stroke="none"><path fill="#000000" d="M 2.25,0.45 Q 2.25,0.45 1.97,1.89 1.69,3.34 1.25,4.51 0.81,5.68 0.39,6.37 -0.01,7.06 -0.17,7.32 -0.33,7.58 -0.54,7.79 -0.76,8.01 -1.02,8.16 -1.28,8.32 -1.58,8.41 -1.87,8.50 -2.17,8.52 -2.48,8.53 -2.78,8.48 -3.08,8.42 -3.36,8.29 -3.63,8.17 -3.87,7.98 -4.11,7.79 -4.30,7.55 -4.49,7.31 -4.61,7.03 -4.73,6.75 -4.79,6.45 -4.84,6.15 -4.82,5.84 -4.80,5.54 -4.71,5.25 -4.62,4.95 -3.86,3.34 -3.11,1.73 -2.92,1.41 -2.74,1.09 -2.46,0.85 -2.18,0.61 -1.84,0.47 -1.50,0.33 -1.13,0.30 -0.76,0.28 -0.40,0.37 -0.04,0.47 0.25,0.67 0.56,0.88 0.79,1.17 1.01,1.46 1.14,1.81 1.26,2.16 1.26,2.52 1.27,2.89 1.15,3.24 1.04,3.60 0.82,3.89 0.60,4.19 0.29,4.40 -0.00,4.61 -0.35,4.71 -0.71,4.82 -1.08,4.80 -1.45,4.78 -1.79,4.65 -2.13,4.52 -2.42,4.28 -2.70,4.05 -2.90,3.73 -3.09,3.42 -3.17,3.06 -3.26,2.70 -3.22,2.33 -3.19,1.96 -3.03,1.63 -2.88,1.29 -2.63,1.02 -2.38,0.75 -2.06,0.57 -1.73,0.40 -1.37,0.33 -1.00,0.27 -0.64,0.32 -0.27,0.38 0.04,0.55 0.37,0.72 0.63,0.98 0.88,1.25 1.04,1.58 1.20,1.92 1.25,2.28 1.29,2.65 1.21,3.01 1.14,3.37 1.14,3.37 1.14,3.37 0.56,5.21 -0.01,7.06 -0.17,7.32 -0.33,7.58 -0.54,7.79 -0.76,8.01 -1.02,8.16 -1.28,8.32 -1.58,8.41 -1.87,8.50 -2.17,8.52 -2.48,8.53 -2.78,8.48 -3.08,8.42 -3.36,8.29 -3.63,8.17 -3.87,7.98 -4.11,7.79 -4.30,7.55 -4.49,7.31 -4.61,7.03 -4.73,6.75 -4.79,6.45 -4.84,6.15 -4.82,5.84 -4.80,5.54 -4.71,5.25 -4.62,4.95 -3.73,3.68 -2.84,2.40 -2.54,0.97 -2.25,-0.45 -2.16,-0.71 -2.07,-0.97 -1.93,-1.21 -1.78,-1.44 -1.58,-1.63 -1.38,-1.82 -1.14,-1.96 -0.90,-2.10 -0.64,-2.18 -0.37,-2.26 -0.10,-2.27 0.17,-2.28 0.44,-2.23 0.71,-2.18 0.96,-2.06 1.21,-1.94 1.43,-1.77 1.64,-1.59 1.81,-1.37 1.98,-1.15 2.09,-0.90 2.20,-0.64 2.24,-0.37 2.29,-0.10 2.27,0.17 2.25,0.45 2.25,0.45 L 2.25,0.45 Z"></path></g><g transform="translate(763 572.515625) rotate(0 3.5 2)" stroke="none"><path fill="#1864ab" d="M -2.00,-1.60 Q -2.00,-1.60 -0.78,-2.98 0.42,-4.37 1.22,-5.33 2.01,-6.30 3.43,-6.99 4.86,-7.68 6.01,-7.37 7.16,-7.07 7.94,-6.17 8.72,-5.27 9.26,-3.32 9.79,-1.37 9.86,0.58 9.94,2.54 9.98,4.24 10.02,5.94 10.04,7.76 10.06,9.58 9.98,10.07 9.90,10.56 9.66,10.99 9.43,11.43 9.07,11.77 8.71,12.11 8.26,12.32 7.82,12.53 7.32,12.58 6.83,12.64 6.35,12.53 5.86,12.42 5.44,12.17 5.01,11.91 4.69,11.54 4.37,11.16 4.19,10.70 4.01,10.24 3.98,9.75 3.95,9.25 4.08,8.77 4.22,8.30 4.49,7.89 4.77,7.48 5.17,7.18 5.56,6.88 6.03,6.72 6.50,6.56 6.99,6.56 7.49,6.56 7.96,6.72 8.43,6.88 8.82,7.18 9.22,7.48 9.49,7.88 9.77,8.29 9.90,8.77 10.04,9.25 10.01,9.74 9.98,10.24 9.80,10.70 9.62,11.16 9.30,11.54 8.98,11.91 8.55,12.17 8.13,12.42 7.64,12.53 7.16,12.64 6.67,12.58 6.18,12.53 5.73,12.32 5.28,12.11 4.92,11.77 4.56,11.43 4.33,11.00 4.09,10.56 4.01,10.07 3.93,9.58 3.93,9.58 3.93,9.58 3.95,7.77 3.97,5.96 3.99,4.29 4.02,2.61 4.02,0.84 4.02,-0.92 3.66,-2.26 3.29,-3.61 4.49,-3.32 5.69,-3.03 4.93,-2.20 4.17,-1.37 3.08,0.11 2.00,1.60 1.78,1.81 1.56,2.03 1.29,2.19 1.02,2.35 0.73,2.43 0.43,2.52 0.12,2.54 -0.18,2.55 -0.48,2.50 -0.78,2.44 -1.06,2.31 -1.34,2.18 -1.59,1.98 -1.83,1.79 -2.02,1.55 -2.20,1.30 -2.33,1.02 -2.45,0.73 -2.51,0.43 -2.56,0.12 -2.54,-0.17 -2.51,-0.48 -2.42,-0.78 -2.32,-1.07 -2.16,-1.34 -2.00,-1.60 -2.00,-1.60 L -2.00,-1.60 Z"></path></g><g transform="translate(734 542.515625) rotate(0 67 -2.5)" stroke="none"><path fill="#1864ab" d="M -1.20,-1.20 Q -1.20,-1.20 -0.08,-2.38 1.02,-3.57 2.15,-4.50 3.29,-5.43 5.10,-6.18 6.92,-6.92 9.38,-7.69 11.85,-8.45 15.01,-9.06 18.16,-9.67 23.28,-10.20 28.39,-10.72 35.19,-10.93 41.98,-11.14 49.18,-11.22 56.37,-11.29 64.65,-10.74 72.93,-10.19 81.09,-8.79 89.26,-7.39 96.43,-6.23 103.60,-5.06 109.57,-3.69 115.54,-2.32 120.36,-1.16 125.19,-0.00 129.07,1.42 132.95,2.85 133.16,2.99 133.38,3.12 133.55,3.32 133.71,3.52 133.81,3.75 133.90,3.99 133.91,4.25 133.93,4.51 133.86,4.76 133.79,5.00 133.64,5.22 133.49,5.43 133.29,5.58 133.08,5.74 132.84,5.82 132.59,5.90 132.34,5.90 132.08,5.89 131.84,5.81 131.59,5.73 131.39,5.57 131.19,5.41 131.04,5.20 130.90,4.98 130.83,4.74 130.77,4.49 130.78,4.23 130.80,3.97 130.89,3.74 130.99,3.50 131.16,3.30 131.33,3.11 131.55,2.98 131.77,2.85 132.02,2.79 132.27,2.74 132.53,2.77 132.78,2.80 133.02,2.91 133.25,3.02 133.43,3.19 133.62,3.37 133.74,3.60 133.86,3.83 133.90,4.08 133.94,4.34 133.89,4.59 133.85,4.84 133.73,5.07 133.61,5.30 133.42,5.47 133.23,5.65 133.00,5.75 132.76,5.86 132.51,5.89 132.25,5.91 132.00,5.86 131.75,5.80 131.75,5.80 131.75,5.80 128.15,4.20 124.56,2.60 119.75,1.45 114.93,0.31 109.05,-1.02 103.17,-2.36 95.98,-3.51 88.80,-4.66 80.77,-6.02 72.75,-7.37 64.58,-7.89 56.41,-8.40 49.25,-8.27 42.09,-8.14 35.41,-7.88 28.74,-7.61 23.79,-7.01 18.85,-6.42 15.94,-5.74 13.03,-5.06 10.68,-4.15 8.33,-3.24 6.95,-2.75 5.56,-2.26 4.56,-1.64 3.57,-1.02 2.38,0.08 1.20,1.20 1.04,1.32 0.88,1.45 0.69,1.54 0.50,1.62 0.30,1.66 0.10,1.69 -0.10,1.68 -0.30,1.67 -0.50,1.61 -0.69,1.55 -0.87,1.44 -1.04,1.33 -1.19,1.19 -1.33,1.04 -1.44,0.87 -1.55,0.69 -1.61,0.50 -1.67,0.30 -1.68,0.10 -1.69,-0.10 -1.66,-0.30 -1.62,-0.50 -1.54,-0.69 -1.45,-0.88 -1.32,-1.04 -1.20,-1.20 -1.20,-1.20 L -1.20,-1.20 Z"></path></g><g transform="translate(720 544.515625) rotate(0 -27.5 14)" stroke="none"><path fill="#1864ab" d="M 1.01,1.18 Q 1.01,1.18 -1.01,2.88 -3.05,4.58 -5.09,6.17 -7.13,7.77 -10.07,9.62 -13.00,11.48 -16.30,13.14 -19.59,14.80 -23.31,16.37 -27.03,17.95 -30.61,19.46 -34.18,20.98 -37.45,22.21 -40.73,23.44 -43.54,24.53 -46.35,25.62 -48.42,26.37 -50.49,27.13 -52.03,28.05 -53.56,28.97 -53.79,29.04 -54.03,29.12 -54.27,29.12 -54.52,29.12 -54.75,29.04 -54.99,28.96 -55.18,28.81 -55.38,28.66 -55.52,28.45 -55.65,28.25 -55.72,28.01 -55.78,27.77 -55.77,27.52 -55.75,27.28 -55.66,27.05 -55.57,26.82 -55.41,26.63 -55.25,26.44 -55.03,26.32 -54.82,26.19 -54.58,26.14 -54.34,26.09 -54.09,26.12 -53.85,26.14 -53.62,26.25 -53.40,26.35 -53.22,26.53 -53.04,26.70 -52.93,26.92 -52.81,27.13 -52.78,27.38 -52.74,27.62 -52.78,27.87 -52.82,28.11 -52.94,28.33 -53.05,28.55 -53.24,28.71 -53.42,28.88 -53.64,28.98 -53.87,29.09 -54.11,29.11 -54.36,29.14 -54.60,29.08 -54.84,29.03 -55.05,28.90 -55.26,28.77 -55.42,28.58 -55.58,28.39 -55.67,28.16 -55.76,27.93 -55.77,27.69 -55.78,27.44 -55.71,27.20 -55.65,26.96 -55.51,26.76 -55.37,26.56 -55.17,26.41 -54.97,26.26 -54.97,26.26 -54.97,26.26 -53.19,25.45 -51.41,24.64 -49.36,23.89 -47.31,23.13 -44.49,22.03 -41.67,20.93 -38.46,19.72 -35.24,18.50 -31.67,16.97 -28.10,15.43 -24.47,13.89 -20.85,12.34 -17.68,10.72 -14.52,9.10 -11.72,7.30 -8.93,5.51 -6.96,3.91 -4.99,2.31 -3.00,0.56 -1.01,-1.18 -0.85,-1.29 -0.70,-1.39 -0.52,-1.45 -0.34,-1.52 -0.16,-1.54 0.02,-1.56 0.21,-1.53 0.39,-1.51 0.57,-1.44 0.74,-1.37 0.90,-1.26 1.05,-1.15 1.17,-1.00 1.30,-0.86 1.38,-0.69 1.46,-0.52 1.51,-0.34 1.55,-0.16 1.55,0.02 1.54,0.21 1.49,0.39 1.45,0.57 1.36,0.74 1.27,0.90 1.14,1.04 1.01,1.18 1.01,1.18 L 1.01,1.18 Z"></path></g></svg>